<?xml version="1.0" standalone="no"?>
<!DOCTYPE svg PUBLIC "-//W3C//DTD SVG 20010904//EN"
 "http://www.w3.org/TR/2001/REC-SVG-20010904/DTD/svg10.dtd">
<svg version="1.0" xmlns="http://www.w3.org/2000/svg"
 width="48.000000pt" height="48.000000pt" viewBox="0 0 48.000000 48.000000"
 preserveAspectRatio="xMidYMid meet">
<metadata>
Created by potrace 1.15, written by Peter Selinger 2001-2017
</metadata>
<g transform="translate(0.000000,48.000000) scale(0.100000,-0.100000)"
fill="#000000" stroke="none">
<path d="M154 316 c-36 -36 -44 -78 -24 -130 20 -53 112 -84 155 -52 18 13 18
14 -1 39 -14 19 -25 24 -41 20 -17 -4 -25 1 -34 21 -17 36 2 79 33 74 32 -5
35 -28 3 -28 -20 0 -26 -4 -23 -17 3 -17 9 -18 104 -14 24 1 26 4 20 34 -9 50
-57 87 -112 87 -39 0 -51 -5 -80 -34z"/>
</g>
</svg>
